<?xml version="1.0" encoding="UTF-8" standalone="no" ?>
<!DOCTYPE svg PUBLIC "-//W3C//DTD SVG 1.1//EN" "http://www.w3.org/Graphics/SVG/1.1/DTD/svg11.dtd">
<svg xmlns="http://www.w3.org/2000/svg" xmlns:xlink="http://www.w3.org/1999/xlink" version="1.1" width="1280" height="1024" viewBox="0 0 1280 1024" xml:space="preserve">
<desc>Created with Fabric.js 4.4.0</desc>
<defs>
</defs>
<g transform="matrix(1 0 0 1 640 512)" id="background-logo"  >
<rect style="stroke: none; stroke-width: 0; stroke-dasharray: none; stroke-linecap: butt; stroke-dashoffset: 0; stroke-linejoin: miter; stroke-miterlimit: 4; fill: rgb(0,0,0); fill-rule: nonzero; opacity: 1;"  paint-order="stroke"  x="-640" y="-512" rx="0" ry="0" width="1280" height="1024" />
</g>
<g transform="matrix(1.9211538461538462 0 0 1.9211538461538462 392.1850740448548 504.23704717319333)" id="text-logo-path-group"  >
<g style=""  paint-order="stroke"   >
		<g transform="matrix(1 0 0 1 0 0)" id="text-logo-path-0"  >
<filter id="SVGID_124788" y="-74.14144864984374%" height="248.28289729968748%" x="-41.76641522701637%" width="183.53283045403273%" >
	<feGaussianBlur in="SourceAlpha" stdDeviation="17.449788899844634"></feGaussianBlur>
	<feOffset dx="0" dy="0" result="oBlur" ></feOffset>
	<feFlood flood-color="rgb(255,190,88)" flood-opacity="1"/>
	<feComposite in2="oBlur" operator="in" />
	<feMerge>
		<feMergeNode></feMergeNode>
		<feMergeNode in="SourceGraphic"></feMergeNode>
	</feMerge>
</filter>
<path style="stroke: rgb(255,145,77); stroke-width: 3.489957779968928; stroke-dasharray: none; stroke-linecap: butt; stroke-dashoffset: 0; stroke-linejoin: miter; stroke-miterlimit: 4; fill: rgb(255,255,255); fill-rule: nonzero; opacity: 1;filter: url(#SVGID_124788);"  paint-order="stroke"  transform=" translate(-83.68159046701433, 31.6)" d="M 14.93 0.63 C 18.83 0.63 21.63 -0.24 23.34 -1.98 C 25.06 -3.71 25.96 -6.53 26.07 -10.43 C 26.23 -17.7 26.31 -24.75 26.31 -31.6 C 26.31 -38.45 26.23 -45.5 26.07 -52.77 C 25.96 -56.67 25.06 -59.5 23.34 -61.26 C 21.63 -62.98 18.83 -63.83 14.93 -63.83 C 10.98 -63.83 8.15 -62.96 6.44 -61.22 C 4.73 -59.49 3.82 -56.67 3.71 -52.77 C 3.56 -45.5 3.49 -38.45 3.52 -31.6 C 3.54 -24.75 3.61 -17.7 3.71 -10.43 C 3.77 -6.53 4.66 -3.7 6.4 -1.94 C 8.14 -0.22 10.98 0.63 14.93 0.63 Z M 14.93 -4.58 C 13.14 -4.58 11.85 -4.95 11.06 -5.69 C 10.27 -6.43 9.85 -7.66 9.8 -9.4 C 9.59 -16.83 9.48 -24.27 9.48 -31.72 C 9.48 -39.17 9.59 -46.53 9.8 -53.8 C 9.85 -55.54 10.27 -56.79 11.06 -57.55 C 11.85 -58.32 13.14 -58.7 14.93 -58.7 C 16.67 -58.7 17.95 -58.32 18.76 -57.55 C 19.58 -56.79 20.01 -55.54 20.07 -53.8 C 20.17 -46.58 20.25 -39.25 20.3 -31.8 C 20.36 -24.35 20.28 -16.88 20.07 -9.4 C 19.96 -7.66 19.53 -6.43 18.76 -5.69 C 18 -4.95 16.72 -4.58 14.93 -4.58 Z M 51.27 0 L 57.27 0 L 57.27 -24.17 L 61.54 -24.17 C 65.44 -24.17 68.23 -25 69.91 -26.66 C 71.65 -28.32 72.6 -31.1 72.76 -35 C 72.86 -37.84 72.92 -40.59 72.92 -43.25 C 72.92 -45.91 72.86 -48.93 72.76 -52.3 C 72.65 -56.2 71.72 -58.99 69.95 -60.67 C 68.19 -62.36 65.39 -63.2 61.54 -63.2 L 51.27 -63.2 Z M 57.27 -29.55 L 57.27 -57.75 L 61.54 -57.75 C 63.28 -57.75 64.56 -57.34 65.37 -56.52 C 66.19 -55.71 66.65 -54.4 66.75 -52.61 C 66.97 -46.66 66.97 -40.71 66.75 -34.76 C 66.65 -32.97 66.2 -31.65 65.41 -30.81 C 64.62 -29.97 63.33 -29.55 61.54 -29.55 Z M 96.46 0 L 115.42 0 L 115.42 -5.45 L 102.46 -5.45 L 102.46 -29.15 L 114.63 -29.15 L 114.63 -34.6 L 102.46 -34.6 L 102.46 -57.75 L 115.42 -57.75 L 115.42 -63.2 L 96.46 -63.2 Z M 138.72 0 L 144.57 0 L 144.1 -23.7 L 143.15 -57.83 L 145.04 -57.83 L 149.47 -22.44 L 153.42 0 L 163.85 0 L 163.85 -63.2 L 157.84 -63.2 L 158.32 -40.29 L 159.42 -5.45 L 157.53 -5.45 L 152.31 -43.13 L 148.68 -63.2 L 138.72 -63.2 Z" stroke-linecap="round" />
</g>
</g>
</g>
<g transform="matrix(1.9211538461538462 0 0 1.9211538461538462 922.0371939747954 496.8410326299906)" id="tagline-46ba9025-bea3-4d53-86ca-1c355302374f-logo-path-group"  >
<g style=""  paint-order="stroke"   >
		<g transform="matrix(1 0 0 1 0 0)" id="tagline-46ba9025-bea3-4d53-86ca-1c355302374f-logo-path-0"  >
<path style="stroke: none; stroke-width: 0; stroke-dasharray: none; stroke-linecap: butt; stroke-dashoffset: 0; stroke-linejoin: miter; stroke-miterlimit: 4; fill: rgb(255,255,255); fill-rule: nonzero; opacity: 1;"  paint-order="stroke"  transform=" translate(-176.76, 28.32)" d="M 31.21 -37.6 L 32.07 -37.6 C 34.21 -37.6 35.23 -38.63 35.23 -40.76 L 35.23 -49.3 C 35.23 -50.8 34.68 -52.14 33.65 -53.17 L 31.13 -55.7 C 30.1 -56.8 28.76 -57.35 27.25 -57.35 L 11.93 -57.35 C 10.43 -57.35 9.09 -56.8 8.06 -55.77 L 5.53 -53.25 C 4.5 -52.14 3.95 -50.8 3.95 -49.3 L 3.95 -32.15 C 3.95 -30.65 4.5 -29.31 5.53 -28.28 L 8.06 -25.75 C 9.09 -24.73 10.43 -24.17 12.01 -24.17 L 24.89 -24.17 C 27.02 -24.17 28.05 -23.15 28.05 -21.01 L 28.05 -9.64 C 28.05 -7.5 27.02 -6.48 24.89 -6.48 L 14.3 -6.48 C 12.17 -6.48 11.14 -7.5 11.14 -9.64 L 11.14 -15.09 C 11.14 -17.22 10.11 -18.25 7.98 -18.25 L 7.11 -18.25 C 4.98 -18.25 3.95 -17.22 3.95 -15.09 L 3.95 -7.35 C 3.95 -5.85 4.5 -4.5 5.53 -3.48 L 8.14 -0.87 C 9.16 0.16 10.51 0.71 12.01 0.71 L 27.25 0.71 C 28.76 0.71 30.1 0.16 31.13 -0.87 L 33.65 -3.4 C 34.68 -4.5 35.23 -5.85 35.23 -7.35 L 35.23 -23.3 C 35.23 -24.81 34.68 -26.15 33.65 -27.18 L 31.13 -29.7 C 30.1 -30.73 28.76 -31.28 27.25 -31.28 L 14.3 -31.28 C 12.17 -31.28 11.14 -32.31 11.14 -34.44 L 11.14 -47.01 C 11.14 -49.14 12.17 -50.16 14.3 -50.16 L 24.89 -50.16 C 27.02 -50.16 28.05 -49.14 28.05 -47.01 L 28.05 -40.76 C 28.05 -38.63 29.07 -37.6 31.21 -37.6 Z M 94.09 -34.05 L 94.96 -34.05 C 97.09 -34.05 98.12 -35.08 98.12 -37.21 L 98.12 -48.03 C 98.12 -49.53 97.56 -50.88 96.54 -51.9 L 93.93 -54.51 C 92.9 -55.54 91.56 -56.09 90.06 -56.09 L 74.89 -56.09 C 73.39 -56.09 72.05 -55.54 71.02 -54.51 L 68.41 -51.9 C 67.39 -50.88 66.83 -49.53 66.83 -48.03 L 66.83 -7.35 C 66.83 -5.85 67.39 -4.5 68.41 -3.48 L 71.02 -0.87 C 72.05 0.16 73.39 0.71 74.89 0.71 L 90.06 0.71 C 91.56 0.71 92.9 0.16 93.93 -0.87 L 96.54 -3.48 C 97.56 -4.5 98.12 -5.85 98.12 -7.35 L 98.12 -17.38 C 98.12 -19.51 97.09 -20.54 94.96 -20.54 L 94.09 -20.54 C 91.96 -20.54 90.93 -19.51 90.93 -17.38 L 90.93 -9.64 C 90.93 -7.5 89.9 -6.48 87.77 -6.48 L 77.18 -6.48 C 75.05 -6.48 74.02 -7.5 74.02 -9.64 L 74.02 -45.74 C 74.02 -47.87 75.05 -48.9 77.18 -48.9 L 87.77 -48.9 C 89.9 -48.9 90.93 -47.87 90.93 -45.74 L 90.93 -37.21 C 90.93 -35.08 91.96 -34.05 94.09 -34.05 Z M 153.81 -53.01 L 153.81 -36.58 C 153.81 -34.44 152.79 -33.42 150.65 -33.42 L 140.07 -33.42 C 137.93 -33.42 136.91 -34.44 136.91 -36.58 L 136.91 -53.01 C 136.91 -55.14 135.88 -56.17 133.75 -56.17 L 132.88 -56.17 C 130.75 -56.17 129.72 -55.14 129.72 -53.01 L 129.72 -2.45 C 129.72 -0.32 130.75 0.71 132.88 0.71 L 133.75 0.71 C 135.88 0.71 136.91 -0.32 136.91 -2.45 L 136.91 -23.07 C 136.91 -25.2 137.93 -26.23 140.07 -26.23 L 150.65 -26.23 C 152.79 -26.23 153.81 -25.2 153.81 -23.07 L 153.81 -2.45 C 153.81 -0.32 154.84 0.71 156.97 0.71 L 157.84 0.71 C 159.97 0.71 161 -0.32 161 -2.45 L 161 -53.01 C 161 -55.14 159.97 -56.17 157.84 -56.17 L 156.97 -56.17 C 154.84 -56.17 153.81 -55.14 153.81 -53.01 Z M 223.89 -7.35 L 223.89 -48.11 C 223.89 -49.61 223.33 -50.95 222.31 -51.98 L 219.78 -54.51 C 218.75 -55.62 217.41 -56.17 215.91 -56.17 L 200.58 -56.17 C 199.08 -56.17 197.74 -55.62 196.71 -54.59 L 194.18 -52.06 C 193.15 -50.95 192.6 -49.61 192.6 -48.11 L 192.6 -7.35 C 192.6 -5.85 193.15 -4.5 194.18 -3.48 L 196.79 -0.87 C 197.82 0.16 199.16 0.71 200.66 0.71 L 215.91 0.71 C 217.41 0.71 218.75 0.16 219.78 -0.87 L 222.31 -3.4 C 223.33 -4.5 223.89 -5.85 223.89 -7.35 Z M 213.54 -6.48 L 202.95 -6.48 C 200.82 -6.48 199.79 -7.5 199.79 -9.64 L 199.79 -45.82 C 199.79 -47.95 200.82 -48.98 202.95 -48.98 L 213.54 -48.98 C 215.67 -48.98 216.7 -47.95 216.7 -45.82 L 216.7 -9.64 C 216.7 -7.5 215.67 -6.48 213.54 -6.48 Z M 286.77 -7.35 L 286.77 -48.11 C 286.77 -49.61 286.22 -50.95 285.19 -51.98 L 282.66 -54.51 C 281.63 -55.62 280.29 -56.17 278.79 -56.17 L 263.46 -56.17 C 261.96 -56.17 260.62 -55.62 259.59 -54.59 L 257.07 -52.06 C 256.04 -50.95 255.49 -49.61 255.49 -48.11 L 255.49 -7.35 C 255.49 -5.85 256.04 -4.5 257.07 -3.48 L 259.67 -0.87 C 260.7 0.16 262.04 0.71 263.54 0.71 L 278.79 0.71 C 280.29 0.71 281.63 0.16 282.66 -0.87 L 285.19 -3.4 C 286.22 -4.5 286.77 -5.85 286.77 -7.35 Z M 276.42 -6.48 L 265.83 -6.48 C 263.7 -6.48 262.67 -7.5 262.67 -9.64 L 262.67 -45.82 C 262.67 -47.95 263.7 -48.98 265.83 -48.98 L 276.42 -48.98 C 278.55 -48.98 279.58 -47.95 279.58 -45.82 L 279.58 -9.64 C 279.58 -7.5 278.55 -6.48 276.42 -6.48 Z M 346.41 -6.48 L 328.72 -6.48 C 326.59 -6.48 325.56 -7.5 325.56 -9.64 L 325.56 -52.93 C 325.56 -55.06 324.53 -56.09 322.4 -56.09 L 321.53 -56.09 C 319.4 -56.09 318.37 -55.06 318.37 -52.93 L 318.37 -7.35 C 318.37 -5.85 318.92 -4.5 319.95 -3.48 L 322.48 -0.95 C 323.5 0.16 324.85 0.71 326.35 0.71 L 346.41 0.71 C 348.55 0.71 349.57 -0.32 349.57 -2.45 L 349.57 -3.32 C 349.57 -5.45 348.55 -6.48 346.41 -6.48 Z" stroke-linecap="round" />
</g>
</g>
</g>
<g transform="matrix(1.9211538461538462 0 0 1.9211538461538462 110.87563823618837 501.45516312932256)" id="tagline-c73dcc4b-589a-4520-8299-8aca8e0bfc2d-logo-path-group"  >
<g style=""  paint-order="stroke"   >
		<g transform="matrix(1 0 0 1 0 0)" id="tagline-c73dcc4b-589a-4520-8299-8aca8e0bfc2d-logo-path-0"  >
<path style="stroke: none; stroke-width: 0; stroke-dasharray: none; stroke-linecap: butt; stroke-dashoffset: 0; stroke-linejoin: miter; stroke-miterlimit: 4; fill: rgb(255,255,255); fill-rule: nonzero; opacity: 1;"  paint-order="stroke"  transform=" translate(-34.72, 24.884999999999998)" d="M 1.42 -2.98 L 1.42 -2.2 C 1.42 -0.28 2.34 0.64 4.26 0.64 L 15.05 0.64 C 16.97 0.64 17.89 -0.28 17.89 -2.2 L 17.89 -2.98 C 17.89 -4.76 17.04 -5.82 15.41 -5.82 C 13.77 -5.82 12.85 -6.89 12.85 -8.66 L 12.85 -41.11 C 12.85 -42.88 13.77 -43.95 15.41 -43.95 C 17.04 -43.95 17.89 -44.87 17.89 -46.79 L 17.89 -47.57 C 17.89 -49.49 16.97 -50.41 15.05 -50.41 L 4.26 -50.41 C 2.34 -50.41 1.42 -49.49 1.42 -47.57 L 1.42 -46.79 C 1.42 -45.01 2.27 -43.95 3.91 -43.95 C 5.54 -43.95 6.39 -42.88 6.39 -41.11 L 6.39 -8.66 C 6.39 -6.89 5.54 -5.82 3.91 -5.82 C 2.27 -5.82 1.42 -4.76 1.42 -2.98 Z M 39.9 -47.57 L 39.9 -46.79 C 39.9 -44.87 40.83 -43.95 42.74 -43.95 L 47.93 -43.95 C 49.84 -43.95 50.77 -43.03 50.77 -41.11 L 50.77 -2.27 C 50.77 -0.36 51.69 0.57 53.61 0.57 L 54.39 0.57 C 56.3 0.57 57.23 -0.36 57.23 -2.27 L 57.23 -41.11 C 57.23 -43.03 58.15 -43.95 60.07 -43.95 L 65.18 -43.95 C 67.09 -43.95 68.02 -44.87 68.02 -46.79 L 68.02 -47.57 C 68.02 -49.49 67.09 -50.41 65.18 -50.41 L 42.74 -50.41 C 40.83 -50.41 39.9 -49.49 39.9 -47.57 Z" stroke-linecap="round" />
</g>
</g>
</g>
<g transform="matrix(1.9211538461538462 0 0 1.9211538461538462 645.00141311273 629.6323889905532)" id="tagline-82439030-f5a5-4f75-aa03-7890ef003a9d-logo-path-group"  >
<g style=""  paint-order="stroke"   >
		<g transform="matrix(1 0 0 1 -5.684342e-14 0)" id="tagline-82439030-f5a5-4f75-aa03-7890ef003a9d-logo-path-0"  >
<path style="stroke: none; stroke-width: 0; stroke-dasharray: none; stroke-linecap: butt; stroke-dashoffset: 0; stroke-linejoin: miter; stroke-miterlimit: 4; fill: rgb(255,255,255); fill-rule: nonzero; opacity: 1;"  paint-order="stroke"  transform=" translate(-307.37, 5.96)" d="M 9.69 -11.9 L 0.68 -11.9 L 0.68 -8.43 L 3.6 -8.43 L 3.6 0 L 6.75 0 L 6.75 -8.43 L 9.69 -8.43 Z M 24.14 -11.9 L 20.88 -7.41 L 17.59 -11.9 L 16.15 -11.9 L 16.15 0 L 17.59 0 L 20.88 -4.49 L 24.14 0 L 25.59 0 L 25.59 -11.9 Z M 32.05 -11.9 L 32.05 0 L 40.89 0 L 36.5 -4.22 L 39.13 -4.22 L 39.13 -7.68 L 36.5 -7.68 L 40.89 -11.9 Z M 61.95 0.15 C 65.31 0.15 68.05 -2.35 68.05 -5.97 C 68.05 -9.33 65.55 -12.07 61.95 -12.07 C 58.58 -12.07 55.85 -9.57 55.85 -5.97 C 55.85 -2.58 58.34 0.15 61.95 0.15 Z M 60.52 -5.97 C 60.52 -6.82 61.17 -7.4 61.95 -7.4 C 62.78 -7.4 63.38 -6.75 63.38 -5.97 C 63.38 -5.12 62.73 -4.54 61.95 -4.54 C 61.1 -4.54 60.52 -5.19 60.52 -5.97 Z M 74.51 -11.9 L 74.51 0 L 79.36 0 L 79.36 -3.45 L 79.37 -3.45 C 81.72 -3.45 83.61 -5.34 83.61 -7.68 C 83.61 -10.01 81.72 -11.9 79.37 -11.9 Z M 77.32 -7.67 C 77.32 -8.52 77.96 -9.1 78.74 -9.1 C 79.58 -9.1 80.17 -8.45 80.17 -7.67 C 80.17 -6.82 79.53 -6.24 78.74 -6.24 C 77.89 -6.24 77.32 -6.89 77.32 -7.67 Z M 90.07 -11.9 L 90.07 0 L 98.91 0 L 94.52 -4.22 L 97.16 -4.22 L 97.16 -7.68 L 94.52 -7.68 L 98.91 -11.9 Z M 105.37 -11.9 L 105.37 0 L 115.06 0 L 115.06 -11.9 L 111.06 -11.9 L 111.06 -7.96 Z M 135.78 0 C 137.44 0 138.79 -1.22 138.79 -3.01 C 138.79 -4.68 137.55 -6.02 135.78 -6.02 L 138.31 -6.02 L 138.31 -11.9 L 132.96 -11.9 C 131.22 -11.9 130.02 -10.59 130.02 -8.96 C 130.02 -7.21 131.32 -6.02 132.96 -6.02 L 130.02 -6.02 L 130.02 0 Z M 151.35 0.15 C 153.07 0.15 154.6 -0.49 155.72 -1.6 L 151.35 -5.97 L 155.72 -10.32 C 154.65 -11.41 153.14 -12.07 151.35 -12.07 C 147.98 -12.07 145.25 -9.57 145.25 -5.97 C 145.25 -2.58 147.75 0.15 151.35 0.15 Z M 170.17 -11.9 L 166.91 -7.41 L 163.62 -11.9 L 162.18 -11.9 L 162.18 0 L 163.62 0 L 166.91 -4.49 L 170.17 0 L 171.61 0 L 171.61 -11.9 Z M 184.18 0.15 C 187.54 0.15 190.28 -2.35 190.28 -5.97 C 190.28 -9.33 187.78 -12.07 184.18 -12.07 C 180.81 -12.07 178.07 -9.57 178.07 -5.97 C 178.07 -2.58 180.57 0.15 184.18 0.15 Z M 182.75 -5.97 C 182.75 -6.82 183.4 -7.4 184.18 -7.4 C 185.01 -7.4 185.61 -6.75 185.61 -5.97 C 185.61 -5.12 184.96 -4.54 184.18 -4.54 C 183.33 -4.54 182.75 -5.19 182.75 -5.97 Z M 202.84 0.15 C 206.21 0.15 208.95 -2.35 208.95 -5.97 C 208.95 -9.33 206.45 -12.07 202.84 -12.07 C 199.48 -12.07 196.74 -9.57 196.74 -5.97 C 196.74 -2.58 199.24 0.15 202.84 0.15 Z M 201.42 -5.97 C 201.42 -6.82 202.06 -7.4 202.84 -7.4 C 203.68 -7.4 204.27 -6.75 204.27 -5.97 C 204.27 -5.12 203.63 -4.54 202.84 -4.54 C 201.99 -4.54 201.42 -5.19 201.42 -5.97 Z M 215.41 -11.9 L 215.41 0 L 223.57 0 L 223.57 -3.47 L 218.55 -3.47 L 218.55 -11.9 Z M 244.63 0.15 C 248 0.15 250.73 -2.35 250.73 -5.97 C 250.73 -9.33 248.23 -12.07 244.63 -12.07 C 241.26 -12.07 238.53 -9.57 238.53 -5.97 C 238.53 -2.58 241.03 0.15 244.63 0.15 Z M 243.2 -5.97 C 243.2 -6.82 243.85 -7.4 244.63 -7.4 C 245.46 -7.4 246.06 -6.75 246.06 -5.97 C 246.06 -5.12 245.41 -4.54 244.63 -4.54 C 243.78 -4.54 243.2 -5.19 243.2 -5.97 Z M 257.19 -11.9 L 257.19 0 L 260.34 0 L 260.34 -4.22 L 264.28 -4.22 L 264.28 -7.68 L 262.38 -7.68 L 266.03 -11.9 Z M 280.99 -11.9 L 280.99 0 L 284.14 0 L 284.14 -11.9 Z M 290.6 -11.9 L 290.6 0 L 300.29 0 L 300.29 -11.9 L 296.29 -11.9 L 296.29 -7.96 Z M 306.75 -11.9 L 306.75 0 L 309.89 0 L 309.89 -4.22 L 313.84 -4.22 L 313.84 -7.68 L 311.93 -7.68 L 315.59 -11.9 Z M 326.62 0.15 C 329.99 0.15 332.72 -2.35 332.72 -5.97 C 332.72 -9.33 330.23 -12.07 326.62 -12.07 C 323.26 -12.07 320.52 -9.57 320.52 -5.97 C 320.52 -2.58 323.02 0.15 326.62 0.15 Z M 325.19 -5.97 C 325.19 -6.82 325.84 -7.4 326.62 -7.4 C 327.45 -7.4 328.05 -6.75 328.05 -5.97 C 328.05 -5.12 327.4 -4.54 326.62 -4.54 C 325.77 -4.54 325.19 -5.19 325.19 -5.97 Z M 339.18 -11.9 L 339.18 0 L 348.19 0 L 344.51 -3.47 C 346.63 -3.71 348.28 -5.49 348.28 -7.68 C 348.28 -10.01 346.39 -11.9 344.05 -11.9 Z M 341.99 -7.67 C 341.99 -8.52 342.64 -9.1 343.42 -9.1 C 344.25 -9.1 344.85 -8.45 344.85 -7.67 C 344.85 -6.82 344.2 -6.24 343.42 -6.24 C 342.57 -6.24 341.99 -6.89 341.99 -7.67 Z M 354.74 -11.9 L 354.74 0 L 365.96 0 L 365.96 -11.9 L 360.35 -5.95 Z M 372.42 0 L 383.86 0 L 378.15 -11.9 Z M 376.99 -2.77 L 378.15 -5.39 L 379.29 -2.77 Z M 397.12 -11.9 L 388.11 -11.9 L 388.11 -8.43 L 391.03 -8.43 L 391.03 0 L 394.18 0 L 394.18 -8.43 L 397.12 -8.43 Z M 403.58 -11.9 L 403.58 0 L 406.73 0 L 406.73 -11.9 Z M 419.29 0.15 C 422.65 0.15 425.39 -2.35 425.39 -5.97 C 425.39 -9.33 422.89 -12.07 419.29 -12.07 C 415.92 -12.07 413.19 -9.57 413.19 -5.97 C 413.19 -2.58 415.68 0.15 419.29 0.15 Z M 417.86 -5.97 C 417.86 -6.82 418.51 -7.4 419.29 -7.4 C 420.12 -7.4 420.72 -6.75 420.72 -5.97 C 420.72 -5.12 420.07 -4.54 419.29 -4.54 C 418.44 -4.54 417.86 -5.19 417.86 -5.97 Z M 431.85 -11.9 L 431.85 0 L 441.54 0 L 441.54 -11.9 L 437.55 -11.9 L 437.55 -7.96 Z M 465.51 -11.9 L 456.5 -11.9 L 456.5 -8.43 L 459.43 -8.43 L 459.43 0 L 462.57 0 L 462.57 -8.43 L 465.51 -8.43 Z M 471.97 -11.9 L 471.97 0 L 480.81 0 L 476.43 -4.22 L 479.06 -4.22 L 479.06 -7.68 L 476.43 -7.68 L 480.81 -11.9 Z M 492.01 0.15 C 493.73 0.15 495.26 -0.49 496.38 -1.6 L 492.01 -5.97 L 496.38 -10.32 C 495.31 -11.41 493.8 -12.07 492.01 -12.07 C 488.65 -12.07 485.91 -9.57 485.91 -5.97 C 485.91 -2.58 488.41 0.15 492.01 0.15 Z M 510.83 -11.9 L 507.57 -7.41 L 504.29 -11.9 L 502.84 -11.9 L 502.84 0 L 504.29 0 L 507.57 -4.49 L 510.83 0 L 512.28 0 L 512.28 -11.9 Z M 518.74 -11.9 L 518.74 0 L 528.43 0 L 528.43 -11.9 L 524.43 -11.9 L 524.43 -7.96 Z M 540.99 0.15 C 544.36 0.15 547.09 -2.35 547.09 -5.97 C 547.09 -9.33 544.6 -12.07 540.99 -12.07 C 537.63 -12.07 534.89 -9.57 534.89 -5.97 C 534.89 -2.58 537.39 0.15 540.99 0.15 Z M 539.56 -5.97 C 539.56 -6.82 540.21 -7.4 540.99 -7.4 C 541.82 -7.4 542.42 -6.75 542.42 -5.97 C 542.42 -5.12 541.77 -4.54 540.99 -4.54 C 540.14 -4.54 539.56 -5.19 539.56 -5.97 Z M 553.55 -11.9 L 553.55 0 L 561.71 0 L 561.71 -3.47 L 556.7 -3.47 L 556.7 -11.9 Z M 573.94 0.15 C 577.3 0.15 580.04 -2.35 580.04 -5.97 C 580.04 -9.33 577.54 -12.07 573.94 -12.07 C 570.57 -12.07 567.83 -9.57 567.83 -5.97 C 567.83 -2.58 570.33 0.15 573.94 0.15 Z M 572.51 -5.97 C 572.51 -6.82 573.16 -7.4 573.94 -7.4 C 574.77 -7.4 575.37 -6.75 575.37 -5.97 C 575.37 -5.12 574.72 -4.54 573.94 -4.54 C 573.09 -4.54 572.51 -5.19 572.51 -5.97 Z M 598.71 -5.97 L 592.6 -5.97 L 596.97 -10.32 C 595.9 -11.41 594.39 -12.07 592.6 -12.07 C 589.24 -12.07 586.5 -9.57 586.5 -5.97 C 586.5 -2.58 589 0.15 592.6 0.15 C 595.97 0.15 598.71 -2.35 598.71 -5.97 Z M 603.64 -11.9 L 607.27 -5.78 L 607.27 0 L 610.42 0 L 610.42 -5.76 L 614.06 -11.9 Z" stroke-linecap="round" />
</g>
</g>
</g>
</svg>